<?xml version="1.0" standalone="no"?>
<!DOCTYPE svg PUBLIC "-//W3C//DTD SVG 1.1//EN" "http://www.w3.org/Graphics/SVG/1.1/DTD/svg11.dtd" >
<svg xmlns="http://www.w3.org/2000/svg">
<metadata></metadata>
<defs>
<font id="chaletmedium" horiz-adv-x="1366" >
<font-face units-per-em="2048" ascent="1638" descent="-410" />
<missing-glyph horiz-adv-x="630" />
<glyph unicode="&#xfb01;" horiz-adv-x="1122" d="M16 795v258h127q2 102 34 189t91.5 146.5t146.5 88t199 16.5v-242q-100 6 -149 -41t-51 -157h577v-1053h-270v795h-307v-795h-271v795h-127zM721 1169v252h270v-252h-270z" />
<glyph unicode="&#xfb02;" horiz-adv-x="1148" d="M16 795v258h127q2 102 34 189t91.5 146.5t146.5 88t199 16.5v-242q-100 6 -149 -41t-51 -157h190v-258h-190v-795h-271v795h-127zM752 0v1524h270v-1524h-270z" />
<glyph horiz-adv-x="0" />
<glyph unicode="&#xd;" horiz-adv-x="630" />
<glyph unicode=" "  horiz-adv-x="630" />
<glyph unicode="&#x09;" horiz-adv-x="630" />
<glyph unicode="&#xa0;" horiz-adv-x="630" />
<glyph unicode="!" horiz-adv-x="587" d="M160 0v268h270v-268h-270zM160 424v997h270v-997h-270z" />
<glyph unicode="&#x22;" horiz-adv-x="763" d="M68 1421h264l-47 -587h-172zM434 1421h262l-45 -587h-174z" />
<glyph unicode="#" horiz-adv-x="1101" d="M18 336l29 196h174l51 353h-174l29 194h176l37 267h203l-37 -267h201l36 267h205l-39 -267h174l-28 -194h-174l-52 -353h175l-29 -196h-176l-37 -260h-203l39 260h-203l-37 -260h-202l39 260h-177zM426 532h199l53 353h-201z" />
<glyph unicode="$" horiz-adv-x="1009" d="M57 508h234q0 -80 40 -126t99 -63v312q-57 12 -119.5 34.5t-115 61.5t-86 97.5t-33.5 144.5q0 145 94 243.5t260 114.5v119h133v-119q164 -20 257 -124.5t93 -264.5h-235q0 59 -30 103t-85 61v-275q74 -18 142.5 -42.5t121 -64.5t84 -100.5t31.5 -148.5 q0 -158 -99.5 -258t-279.5 -119v-119h-133v121q-76 8 -143.5 40t-118.5 83t-81 124t-30 165zM311 975q0 -41 28 -66.5t91 -48.5v244q-55 -12 -87 -45t-32 -84zM563 315q59 10 102.5 44.5t43.5 95.5q0 25 -5.5 45t-20.5 38.5t-44 34t-76 29.5v-287z" />
<glyph unicode="%" horiz-adv-x="1634" d="M45 1063q0 74 27.5 139.5t76 114.5t113.5 76.5t141 27.5t142.5 -27.5t114 -76.5t75 -114.5t27.5 -139.5t-27.5 -138.5t-75 -113.5t-114 -76.5t-142.5 -27.5t-141 27.5t-113.5 76.5t-76 113.5t-27.5 138.5zM250 1063q0 -68 45 -116t108 -48q66 0 111 48t45 116t-45 116 t-111 48q-63 0 -108 -48.5t-45 -115.5zM317 0l781 1421h219l-780 -1421h-220zM872 358q0 74 28 139.5t75 113.5t112.5 77t143.5 29q76 0 141.5 -29t113.5 -77t75.5 -113.5t27.5 -139.5t-27.5 -139t-75.5 -114.5t-113.5 -77t-141.5 -27.5q-78 0 -143.5 27.5t-112.5 77 t-75 115t-28 138.5zM1075 358q0 -68 45 -115.5t111 -47.5q63 0 109 48t46 115q0 68 -46 116t-109 48q-66 0 -111 -48t-45 -116z" />
<glyph unicode="&#x26;" horiz-adv-x="1351" d="M68 426q0 74 23.5 136.5t62.5 113.5t89 91t101 71l-12 14q-49 61 -74 129t-25 133q0 74 27 136.5t74 108.5t111.5 72.5t142.5 26.5q76 0 138 -25.5t108.5 -71.5t72 -108.5t25.5 -136.5q0 -111 -66.5 -193.5t-165.5 -140.5l256 -319q16 53 22.5 116.5t2.5 137.5h242 q6 -131 -18.5 -252t-80.5 -213l201 -252h-313l-62 76q-72 -49 -161 -75t-205 -26q-109 0 -202 34t-164 94.5t-110.5 142.5t-39.5 180zM322 426q0 -45 20 -83t55 -66.5t83 -45t104 -16.5q68 0 119 13.5t94 39.5l-312 391q-94 -55 -128.5 -114.5t-34.5 -118.5zM481 1122 q0 -43 17.5 -76.5t46.5 -68.5l14 -16q129 76 129 172q0 45 -27.5 72.5t-74.5 27.5q-45 0 -75 -31t-30 -80z" />
<glyph unicode="'" horiz-adv-x="399" d="M68 1421h262l-45 -587h-174z" />
<glyph unicode="(" horiz-adv-x="665" d="M82 690q0 131 25.5 263t71.5 253t111.5 226.5t143.5 185.5h215q-145 -190 -228 -427t-83 -501t83 -500.5t228 -427.5h-215q-78 80 -143.5 185.5t-111.5 226.5t-71.5 252t-25.5 264z" />
<glyph unicode=")" horiz-adv-x="665" d="M18 -238q145 190 227.5 427t82.5 501t-82 500.5t-228 427.5h213q78 -80 143.5 -185.5t111.5 -226.5t72 -253t26 -263q0 -133 -26 -264t-72 -252t-111.5 -226.5t-143.5 -185.5h-213z" />
<glyph unicode="*" horiz-adv-x="800" d="M55 1038v158l215 -6l-112 188l137 78l104 -192l105 192l137 -78l-113 -188l217 6v-158l-217 4l113 -184l-137 -80l-105 191l-104 -191l-135 80l110 184z" />
<glyph unicode="+" horiz-adv-x="1073" d="M76 440v252h325v334h271v-334h325v-252h-325v-336h-271v336h-325z" />
<glyph unicode="," horiz-adv-x="479" d="M94 0v289h291v-324q0 -139 -73.5 -214t-190.5 -87v127q63 14 95 59.5t32 112.5v37h-154z" />
<glyph unicode="-" horiz-adv-x="677" d="M61 442v252h555v-252h-555z" />
<glyph unicode="." horiz-adv-x="479" d="M94 0v289h291v-289h-291z" />
<glyph unicode="/" horiz-adv-x="690" d="M4 0l432 1524h281l-432 -1524h-281z" />
<glyph unicode="0" horiz-adv-x="1198" d="M72 698q0 201 46 339.5t121.5 224.5t170 123.5t190.5 37.5q94 0 188.5 -37.5t170 -123.5t121.5 -224.5t46 -339.5t-46 -339t-121.5 -224t-170 -124t-188.5 -38q-96 0 -190.5 38t-170 124t-121.5 224.5t-46 338.5zM340 698q0 -53 8 -134t35 -156.5t78 -130t139 -54.5 q86 0 137 54.5t78 130t35 156.5t8 134t-8 135t-35 158t-78 130.5t-137 54.5q-88 0 -139 -54.5t-78 -130.5t-35 -157.5t-8 -135.5z" />
<glyph unicode="1" horiz-adv-x="860" d="M90 991v176q47 0 94 15.5t85 46.5t63.5 79t32.5 113h217v-1421h-271v991h-221z" />
<glyph unicode="2" horiz-adv-x="1153" d="M68 0v121q0 119 35.5 210t96 160.5t137.5 123t159 96.5q98 53 156.5 93t88 73.5t37.5 63.5t8 60q0 72 -47 124.5t-155 52.5q-106 0 -166 -72t-60 -182h-272q0 98 32 188t94 160.5t154.5 112.5t215.5 42t212 -37.5t147 -98t87 -137.5t29 -155q0 -100 -33 -172.5t-89 -130 t-134 -105.5t-170 -97q-109 -59 -182.5 -118t-79.5 -124h684v-252h-985z" />
<glyph unicode="3" horiz-adv-x="1142" d="M49 455h270q2 -109 66 -169.5t176 -60.5q117 0 181.5 57.5t64.5 145.5q0 180 -232 180h-90v236h56q127 0 176 46t49 118q0 78 -50 124t-145 46q-55 0 -94 -17.5t-65.5 -47.5t-39 -67.5t-12.5 -76.5h-270q0 92 33 176t94.5 146.5t150.5 99t203 36.5q119 0 206 -33.5 t143.5 -89t83 -126t26.5 -142.5q0 -92 -45 -168.5t-135 -119.5q61 -18 105 -52t71 -77.5t39 -93.5t12 -101q0 -84 -32.5 -165t-97 -143.5t-161 -101.5t-223.5 -39t-222 38t-159.5 102.5t-97.5 151.5t-35 188z" />
<glyph unicode="4" horiz-adv-x="1134" d="M49 289v239l557 893h316v-893h151v-239h-151v-289h-252v289h-621zM317 528h353v564z" />
<glyph unicode="5" horiz-adv-x="1126" d="M55 395h273q16 -78 76.5 -121t150.5 -43q43 0 86 13.5t76 42t53.5 72.5t20.5 106q0 106 -62.5 174t-163.5 68q-66 0 -124 -32t-97 -91l-244 65l84 772h789v-252h-580l-35 -297q51 33 109.5 50.5t116.5 17.5q100 0 188 -36t151.5 -100.5t100.5 -153.5t37 -193 q0 -102 -39 -190.5t-106.5 -153t-159.5 -101.5t-201 -37t-198 32t-154.5 88.5t-103.5 133t-44 166.5z" />
<glyph unicode="6" horiz-adv-x="1153" d="M72 641q0 186 36.5 334.5t106.5 252t171 158t228 54.5q190 0 312.5 -108.5t150.5 -295.5h-272q-12 59 -58.5 106.5t-132.5 47.5q-119 0 -185.5 -99.5t-82.5 -252.5q53 43 124 66.5t144 23.5q104 0 192.5 -35t153 -96.5t101.5 -148.5t37 -191t-37 -192.5t-103.5 -153 t-157.5 -100.5t-200 -36q-96 0 -190.5 35t-170 114t-121.5 206t-46 311zM371 451q0 -49 16 -91.5t47 -75t73 -51t93 -18.5t93 18.5t73 51t47 75t16 91.5t-16 92t-47 75.5t-73 51t-93 18.5t-93 -18.5t-73 -51t-47 -75.5t-16 -92z" />
<glyph unicode="7" horiz-adv-x="1056" d="M35 1169v252h987v-237q-244 -199 -371 -501t-127 -683h-270q0 180 27.5 350t82 320.5t135.5 276.5t187 222h-651z" />
<glyph unicode="8" horiz-adv-x="1140" d="M63 410q0 113 55.5 205t151.5 149q-70 53 -108.5 128t-38.5 165q0 82 33.5 152.5t93 121.5t141.5 80t178 29t178 -29t142.5 -80t94.5 -121.5t34 -152.5q0 -90 -39 -164t-109 -127q98 -57 152.5 -148t54.5 -208q0 -92 -39 -172t-106.5 -138.5t-160.5 -91.5t-202 -33 t-201 33t-159.5 91.5t-106.5 138t-39 172.5zM326 422q0 -55 21.5 -94t56 -65.5t78.5 -39t87 -12.5q45 0 89 12.5t79 39t56.5 65.5t21.5 94t-21.5 94t-55 64.5t-79 38t-90.5 12.5t-89 -12.5t-77.5 -38t-55 -64.5t-21.5 -94zM379 1040q0 -41 16.5 -72.5t43 -53t61.5 -33 t69 -11.5q37 0 71 11.5t61.5 33t44 53t16.5 72.5q0 43 -17.5 75t-45 51.5t-61.5 29.5t-69 10t-68.5 -10t-61 -29.5t-44 -51.5t-16.5 -75z" />
<glyph unicode="9" horiz-adv-x="1148" d="M55 952q0 106 37 195.5t103.5 154t157.5 101.5t200 37q100 0 193.5 -35t166 -114t117.5 -206t47 -311q2 -188 -28.5 -336.5t-96 -251t-167 -157t-238.5 -54.5q-180 0 -301 95.5t-158 253.5h291q16 -41 58 -71t112 -30q135 0 195.5 96.5t68.5 270.5q-43 -53 -120 -84 t-161 -31q-98 0 -185 35t-151.5 97.5t-102.5 150.5t-38 194zM324 952q0 -51 16 -95t47 -78t73 -53t93 -19t93 19t73 53t47 78t16 95t-16 97.5t-47 80t-73 53t-93 19.5t-93 -19.5t-73 -53t-47 -79.5t-16 -98z" />
<glyph unicode=":" horiz-adv-x="501" d="M106 0v289h291v-289h-291zM106 729v289h291v-289h-291z" />
<glyph unicode=";" horiz-adv-x="501" d="M106 0v289h291v-324q0 -139 -73.5 -214t-190.5 -87v127q63 14 94 59.5t31 112.5v37h-152zM106 729v289h291v-289h-291z" />
<glyph unicode="&#x3c;" horiz-adv-x="919" d="M63 430v268l793 367v-279l-526 -221l526 -223v-276z" />
<glyph unicode="=" horiz-adv-x="1034" d="M76 211v250h882v-250h-882zM76 670v252h882v-252h-882z" />
<glyph unicode="&#x3e;" horiz-adv-x="921" d="M63 66v276l527 223l-527 221v279l795 -367v-268z" />
<glyph unicode="?" horiz-adv-x="1130" d="M68 991q0 102 33.5 187.5t98 146.5t154.5 95t205 34q113 0 202 -30.5t150.5 -86t93 -132.5t31.5 -167q0 -63 -18.5 -114.5t-51 -94.5t-75.5 -79.5t-94 -69.5q-72 -47 -101.5 -95t-29.5 -114v-47h-248v47q0 80 19.5 139.5t52 104.5t71.5 77.5t80 61.5q70 49 98.5 90 t28.5 94q0 74 -55.5 121t-153.5 47q-111 0 -167 -61.5t-56 -153.5h-268zM406 0v268h270v-268h-270z" />
<glyph unicode="@" horiz-adv-x="1525" d="M63 713q0 158 57.5 293t156 235t231.5 156.5t285 56.5q125 0 245.5 -38t215 -113.5t151.5 -190.5t57 -270q0 -100 -30.5 -189.5t-85 -156t-127 -105.5t-154.5 -39q-72 0 -125 31t-82 80q-43 -55 -97 -85t-114 -30q-63 0 -113.5 30t-80 84t-34.5 128t19 160 q20 70 58.5 129t85.5 103t102 68.5t109 24.5q49 0 88 -22.5t61 -63.5l16 53h185q-10 -29 -30.5 -94t-41.5 -133q-25 -80 -51 -170q-16 -53 2 -79.5t51 -26.5q39 0 73 24.5t59.5 66.5t40 95t14.5 111q0 113 -41 195.5t-108 135t-149.5 78t-168.5 25.5q-109 0 -205 -44 t-168 -120t-113 -177.5t-41 -215.5q0 -119 42 -220.5t116 -175t174 -115.5t217 -42q127 0 231.5 43t170.5 110h243q-104 -166 -263 -253t-382 -87q-158 0 -295 55.5t-238.5 155t-160 234.5t-58.5 295zM623.5 593q15.5 -50 62.5 -50t95 50t71 122t7.5 122t-62.5 50 q-45 0 -93.5 -48t-72.5 -124q-23 -72 -7.5 -122z" />
<glyph unicode="A" d="M12 0l496 1421h342l496 -1421h-287l-96 285h-568l-96 -285h-287zM479 537h398l-199 583z" />
<glyph unicode="B" horiz-adv-x="1333" d="M131 0v1421h655q215 0 321.5 -102t106.5 -283q0 -90 -36.5 -160.5t-102.5 -117.5q92 -47 143.5 -132t51.5 -208q0 -96 -31 -173t-89 -131.5t-141 -84t-186 -29.5h-692zM401 248h385q39 0 76 8t66.5 29.5t47 55.5t17.5 87q0 90 -54 138t-159 48h-379v-366zM401 862h385 q70 0 118 43t48 115t-44 114t-122 42h-385v-314z" />
<glyph unicode="C" horiz-adv-x="1449" d="M68 717q0 156 53 291t145 235t218 157.5t272 57.5q121 0 224 -32.5t186 -94t143.5 -149.5t93.5 -197h-293q-47 98 -139 161.5t-215 63.5q-88 0 -164 -38.5t-132.5 -106.5t-89 -158t-32.5 -190q0 -102 32.5 -192.5t89 -158t132.5 -106.5t164 -39q123 0 215 65.5t139 164.5 h291q-35 -109 -95.5 -197t-143.5 -149.5t-185.5 -95.5t-220.5 -34q-145 0 -271.5 57.5t-218.5 158t-145 235.5t-53 291z" />
<glyph unicode="D" d="M131 0v1421h526q147 0 266 -49t202 -141t128 -224t45 -296t-45 -295t-129 -223.5t-202.5 -142.5t-264.5 -50h-526zM401 252h256q121 0 194 48t113 117.5t52 149.5t12 146q0 78 -15.5 158.5t-56.5 147t-112.5 108.5t-186.5 42h-256v-917z" />
<glyph unicode="E" horiz-adv-x="1245" d="M131 0v1421h1038v-252h-768v-303h656v-252h-656v-362h783v-252h-1053z" />
<glyph unicode="F" horiz-adv-x="1200" d="M131 0v1421h1016v-252h-746v-338h641v-251h-641v-580h-270z" />
<glyph unicode="G" horiz-adv-x="1531" d="M68 715q0 156 53 291t146 235t219 157.5t272 57.5q119 0 222 -32.5t186 -93t143.5 -148.5t93.5 -199h-291q-20 47 -55 88t-81 72t-101.5 49t-116.5 18q-88 0 -165 -40t-133.5 -107.5t-89 -157.5t-32.5 -190t34 -190.5t92 -158t137 -106.5t169 -39q76 0 142.5 24.5 t119.5 67.5t92 100.5t58 125.5h-385v252h633v-791h-250v154q-72 -86 -180.5 -132.5t-241.5 -46.5q-145 0 -271.5 57.5t-219.5 157t-146 234.5t-53 291z" />
<glyph unicode="H" horiz-adv-x="1413" d="M131 0v1421h272v-569h607v569h270v-1421h-270v600h-607v-600h-272z" />
<glyph unicode="I" horiz-adv-x="542" d="M137 0v1421h271v-1421h-271z" />
<glyph unicode="J" horiz-adv-x="1081" d="M35 438v99h270v-107q0 -37 11.5 -70.5t35 -61.5t60.5 -44t86 -16q51 0 88 16t60.5 44t34.5 61.5t11 70.5v991h271v-983q0 -98 -33 -183t-93.5 -147.5t-146.5 -98.5t-192 -36t-191.5 36t-146 98.5t-93 147.5t-32.5 183z" />
<glyph unicode="K" horiz-adv-x="1327" d="M131 0v1421h272v-573l535 573h373l-578 -594l602 -827h-352l-440 631l-140 -146v-485h-272z" />
<glyph unicode="L" horiz-adv-x="1144" d="M131 0v1421h272v-1169h707v-252h-979z" />
<glyph unicode="M" horiz-adv-x="1660" d="M131 0v1421h401l297 -1065l297 1065h404v-1421h-266v1042l-289 -1042h-289l-289 1042v-1042h-266z" />
<glyph unicode="N" horiz-adv-x="1437" d="M131 0v1421h326l577 -1011v1011h273v-1421h-326l-580 1012v-1012h-270z" />
<glyph unicode="O" horiz-adv-x="1525" d="M68 717q0 154 52 289t144 235t220 157.5t280 57.5q150 0 277.5 -57.5t220 -157.5t144.5 -235.5t52 -288.5q0 -156 -52 -291t-144.5 -235.5t-220.5 -158t-277 -57.5q-152 0 -280 57.5t-220 158t-144 235.5t-52 291zM340 717q0 -100 33 -188.5t90 -155t135 -104.5t166 -38 t165 38t134 104.5t90 154.5t33 189q0 98 -33 186t-90 154.5t-134 104.5t-165 38t-166 -38t-135 -104.5t-90 -154.5t-33 -186z" />
<glyph unicode="P" horiz-adv-x="1249" d="M131 0v1421h598q111 0 199 -32.5t147.5 -92t91 -144.5t31.5 -189q0 -98 -32.5 -182.5t-93 -145t-146.5 -94t-191 -33.5h-334v-508h-270zM401 756h326q94 0 147.5 49t53.5 158t-53.5 157.5t-147.5 48.5h-326v-413z" />
<glyph unicode="Q" horiz-adv-x="1523" d="M68 717q0 154 52 289t144 235t220 157.5t280 57.5q150 0 276.5 -57.5t219 -157.5t144.5 -235.5t52 -288.5q0 -158 -52 -293t-144 -236l200 -213h-307l-72 76q-145 -76 -317 -76q-152 0 -280 57.5t-220 158t-144 235.5t-52 291zM338 717q0 -100 34 -188.5t91 -155 t135 -104.5t166 -38q63 0 127 23l-211 223h307l84 -90q53 66 84 150t31 180q0 98 -34 186t-91 154.5t-134 104.5t-163 38q-88 0 -166 -38t-135 -104.5t-91 -154.5t-34 -186z" />
<glyph unicode="R" d="M131 0v1421h649q223 0 355.5 -111.5t132.5 -312.5q0 -123 -53.5 -201.5t-145.5 -121.5q76 -41 116 -116t40 -187v-199q0 -39 10 -90t22 -82h-274q-12 29 -20.5 67.5t-8.5 88.5v217q0 92 -44 134t-140 42h-369v-549h-270zM401 793h385q12 0 47 5t72 24.5t64.5 57.5 t27.5 103q0 18 -3 49t-23.5 61.5t-64.5 53t-126 22.5h-379v-376z" />
<glyph unicode="S" horiz-adv-x="1325" d="M76 471h270q0 -63 28.5 -109.5t74 -77t100.5 -46t108 -15.5q57 0 114.5 10.5t103 34t73 59t27.5 87.5q0 33 -15.5 61.5t-54.5 52t-103.5 44t-162.5 38.5t-193.5 46t-169 76t-119.5 123t-46 189q0 92 38.5 168t110.5 130.5t172 85t225 30.5q141 0 244 -41t169.5 -107.5 t99 -150.5t32.5 -168h-270q0 92 -73 153.5t-202 61.5q-53 0 -103 -10t-89 -30.5t-61.5 -51.5t-22.5 -72q0 -74 74.5 -109.5t238.5 -68.5q127 -25 228.5 -56.5t173 -80.5t110.5 -123t39 -182q0 -102 -41 -185t-117.5 -141.5t-185 -89.5t-244.5 -31q-104 0 -208.5 30 t-187.5 90.5t-134 153.5t-51 222z" />
<glyph unicode="T" horiz-adv-x="1097" d="M33 1169v252h1032v-252h-381v-1169h-270v1169h-381z" />
<glyph unicode="U" horiz-adv-x="1331" d="M119 563v858h270v-866q0 -317 277 -317q276 0 276 317v866h272v-858q0 -135 -35.5 -244.5t-104 -185.5t-171 -117t-237.5 -41t-236.5 41t-171.5 117t-104.5 185.5t-34.5 244.5z" />
<glyph unicode="V" horiz-adv-x="1236" d="M6 1421h287l325 -1095l324 1095h287l-465 -1421h-291z" />
<glyph unicode="W" horiz-adv-x="1822" d="M6 1421h287l244 -1034l213 1034h327l211 -1034l246 1034h285l-387 -1421h-299l-220 1071l-221 -1071h-297z" />
<glyph unicode="X" horiz-adv-x="1247" d="M4 0l459 727l-438 694h319l281 -465l280 465h322l-439 -694l457 -727h-319l-301 498l-299 -498h-322z" />
<glyph unicode="Y" horiz-adv-x="1218" d="M-4 1421h305l307 -608l310 608h305l-478 -876v-545h-272v545z" />
<glyph unicode="Z" horiz-adv-x="1214" d="M51 0v242l762 927h-737v252h1067v-239l-762 -930h780v-252h-1110z" />
<glyph unicode="[" horiz-adv-x="649" d="M131 -248v1925h492v-221h-250v-1483h250v-221h-492z" />
<glyph unicode="\" horiz-adv-x="692" d="M-27 1524h283l430 -1524h-280z" />
<glyph unicode="]" horiz-adv-x="690" d="M47 -27h260v1483h-260v221h512v-1925h-512v221z" />
<glyph unicode="^" horiz-adv-x="1134" d="M68 528l366 893h266l367 -893h-270l-230 625l-229 -625h-270z" />
<glyph unicode="_" horiz-adv-x="1650" d="M-4 -143h1659v-252h-1659v252z" />
<glyph unicode="`" horiz-adv-x="854" d="M152 1481h301l190 -289h-199z" />
<glyph unicode="a" horiz-adv-x="1191" d="M63 322q0 88 35 146t94.5 94t137.5 53.5t166 25.5q66 6 121 14.5t95 21.5t62.5 33.5t22.5 53.5q0 41 -50.5 70.5t-142.5 29.5q-37 0 -73.5 -8t-68.5 -24.5t-56.5 -42t-32.5 -58.5h-271q10 76 50.5 139.5t105 110.5t150.5 73.5t190 26.5q106 0 182 -20.5t127 -54t82 -74.5 t46.5 -81t19.5 -75t4 -55v-549q0 -39 10 -90t21 -82h-248q-16 37 -27 98q-53 -55 -133 -86.5t-190 -31.5q-84 0 -161 21.5t-136.5 63t-95.5 106.5t-36 151zM336 319q0 -45 48 -72.5t130 -27.5q61 0 114.5 10.5t93.5 34t62.5 59t22.5 87.5v98q-43 -29 -107.5 -43t-148.5 -25 q-100 -10 -157.5 -35.5t-57.5 -85.5z" />
<glyph unicode="b" horiz-adv-x="1267" d="M123 0v1524h272v-570q59 59 138 91t172 32q104 0 195 -42t158.5 -115.5t107.5 -175t40 -218.5t-40 -217t-107.5 -174t-158.5 -116t-195 -42q-96 0 -178.5 35t-143.5 101v-113h-260zM395 524q0 -61 21.5 -115.5t58.5 -94.5t86 -63.5t105 -23.5q55 0 104 22.5t86 62.5 t58.5 94.5t21.5 117.5t-21.5 119.5t-58.5 96.5t-86 63.5t-104 23.5t-104.5 -23.5t-86.5 -64.5t-58.5 -96t-21.5 -119z" />
<glyph unicode="c" horiz-adv-x="1169" d="M61 526q0 115 41 216.5t113 176t172 118.5t219 44q193 0 327 -100t181 -281h-289q-29 53 -87 93.5t-132 40.5q-55 0 -104 -25t-86 -67t-58.5 -98t-21.5 -120q0 -61 21.5 -116.5t58.5 -97.5t86 -65.5t104 -23.5q76 0 135.5 40t85.5 95h289q-47 -180 -182 -280.5 t-328 -100.5q-119 0 -219 43t-172 118t-113 175.5t-41 214.5z" />
<glyph unicode="d" horiz-adv-x="1273" d="M61 526q0 117 40 218.5t109 175t160 115.5t193 42q92 0 171 -31.5t140 -91.5v570h271v-1524h-258v113q-63 -66 -144 -101t-180 -35q-102 0 -193 42t-160 116t-109 174.5t-40 216.5zM334 524q0 -63 21.5 -117.5t58.5 -94.5t86 -62.5t104 -22.5t104.5 23.5t86 63.5t58 94.5 t21.5 115.5q0 63 -21.5 118.5t-58 96.5t-86 64.5t-104.5 23.5t-104 -23.5t-86 -63.5t-58.5 -96t-21.5 -120z" />
<glyph unicode="e" horiz-adv-x="1198" d="M61 526q0 115 43 216.5t117 176t172.5 118.5t208.5 44q117 0 220.5 -44t177.5 -129q73 -86 110 -208q27 -89 27 -195q0 -40 -4 -83h-797q27 -98 97.5 -153.5t166.5 -55.5q68 0 128 29.5t95 93.5h289q-47 -162 -179 -261.5t-331 -99.5q-111 0 -209 43t-172 118t-117 175.5 t-43 214.5zM340 643h524q-25 92 -95.5 146.5t-168.5 54.5q-92 0 -161.5 -54.5t-98.5 -146.5z" />
<glyph unicode="f" horiz-adv-x="643" d="M16 811v240h127q2 102 33 189t91.5 147.5t147.5 88.5q61 21 135 21q31 0 64 -4v-254q-15 1 -30 1q-76 0 -119 -36q-51 -43 -51 -153h190v-240h-190v-811h-271v811h-127z" />
<glyph unicode="g" horiz-adv-x="1253" d="M61 526q0 117 40 218.5t109 175t160 115.5t193 42q98 0 179 -34.5t145 -100.5v113h258v-1002q0 -131 -38 -236.5t-108.5 -179t-172 -113.5t-228.5 -40q-94 0 -180 26.5t-154.5 74.5t-116 116t-61.5 152h297q12 -31 37.5 -53.5t55.5 -37t61.5 -20.5t60.5 -6 q143 0 209.5 86t66.5 227v51q-61 -59 -140 -91t-171 -32q-102 0 -193 42t-160 116t-109 174.5t-40 216.5zM334 524q0 -63 21.5 -117.5t58.5 -94.5t86 -62.5t104 -22.5t104.5 23.5t86 63.5t58 94.5t21.5 115.5q0 63 -21.5 118.5t-58 96.5t-86 64.5t-104.5 23.5t-104 -23.5 t-86 -63.5t-58.5 -96t-21.5 -120z" />
<glyph unicode="h" horiz-adv-x="1181" d="M123 0v1524h272v-525q51 39 111.5 60.5t130.5 21.5q96 0 176 -33.5t136.5 -94t87 -146.5t30.5 -191v-616h-270v616q0 23 -6.5 58t-27 66.5t-59 54t-104.5 22.5q-92 0 -148.5 -55t-56.5 -146v-616h-272z" />
<glyph unicode="i" horiz-adv-x="528" d="M129 0v1055h270v-1055h-270zM129 1169v252h270v-252h-270z" />
<glyph unicode="j" horiz-adv-x="489" d="M-51 -225q18 -2 35 -2q56 0 87 21q40 28 40 108v1153h272v-1184q0 -104 -30.5 -175t-87 -111t-136.5 -52q-37 -6 -78 -6q-48 0 -102 8v240zM111 1169v252h272v-252h-272z" />
<glyph unicode="k" horiz-adv-x="1142" d="M123 0v1524h270v-852l346 383h373l-393 -412l416 -643h-344l-263 444l-135 -141v-303h-270z" />
<glyph unicode="l" horiz-adv-x="526" d="M129 0v1524h270v-1524h-270z" />
<glyph unicode="m" horiz-adv-x="1853" d="M123 0v1055h260v-103q49 59 117.5 94t154.5 35q98 0 179 -38.5t137 -110.5q57 70 138 109.5t183 39.5q106 0 189.5 -33.5t140.5 -95t87 -146.5t30 -190v-616h-271v616q0 23 -6 59t-26.5 69.5t-59.5 57t-104 23.5q-92 0 -148.5 -59t-56.5 -150v-616h-272v616q0 23 -6.5 59 t-26 69.5t-58 57t-106.5 23.5q-90 0 -146.5 -59t-56.5 -150v-616h-272z" />
<glyph unicode="n" horiz-adv-x="1181" d="M123 0v1055h258v-103q51 59 118.5 94t153.5 35q92 0 169 -33.5t130.5 -94t83 -146.5t29.5 -191v-616h-270v616q0 23 -6.5 59t-26 69.5t-58 57t-106.5 23.5q-92 0 -148.5 -59t-56.5 -150v-616h-270z" />
<glyph unicode="o" horiz-adv-x="1185" d="M61 526q0 119 42 220.5t114 176t168 116.5t207 42t207 -42t168.5 -116.5t114.5 -176t42 -220.5t-42 -219t-114.5 -174t-169 -116t-206.5 -42q-111 0 -207 42t-168 116t-114 174.5t-42 218.5zM332 524q0 -68 20.5 -123t55 -95t83 -61.5t101.5 -21.5t100 21.5t83 61.5 t56.5 95.5t20.5 122.5q0 68 -20.5 125.5t-56.5 98t-83 63.5t-100 23t-101.5 -23t-83 -63.5t-55 -98t-20.5 -125.5z" />
<glyph unicode="p" horiz-adv-x="1267" d="M123 -469v1524h260v-111q61 63 143 99t179 36q104 0 195 -42t158.5 -115.5t107.5 -174t40 -217.5t-40 -218t-107.5 -176t-158.5 -117t-195 -42q-92 0 -171 33t-139 92v-571h-272zM395 530q0 -61 21.5 -116.5t58.5 -96.5t86 -64.5t105 -23.5q55 0 104 22.5t86 63.5 t58.5 95t21.5 120q0 63 -21.5 117.5t-58.5 94.5t-86 62.5t-104 22.5t-104.5 -23.5t-86.5 -63.5t-58.5 -94t-21.5 -116z" />
<glyph unicode="q" horiz-adv-x="1269" d="M61 530q0 117 40 217.5t109 174t160 115.5t193 42q98 0 179 -35.5t145 -99.5v111h258v-1524h-271v571q-61 -59 -140 -92t-171 -33q-102 0 -193 42t-160 117t-109 176.5t-40 217.5zM334 530q0 -66 21.5 -120t58.5 -95t86 -63.5t104 -22.5t104.5 23.5t86 64.5t58 96.5 t21.5 116.5t-21.5 115.5t-58 94.5t-86 63.5t-104.5 23.5t-104 -22.5t-86 -62.5t-58.5 -94t-21.5 -118z" />
<glyph unicode="r" horiz-adv-x="745" d="M123 0v1055h258v-105q66 80 155 111q57 20 118 20q33 0 67 -6v-262q-36 4 -68 4q-41 0 -79 -7q-66 -13 -113 -62q-43 -45 -55.5 -105.5t-12.5 -124.5v-518h-270z" />
<glyph unicode="s" horiz-adv-x="1077" d="M51 344h275q14 -35 39.5 -57.5t56.5 -38t64.5 -21.5t64.5 -6q82 0 136 23.5t54 70.5q0 23 -8 39.5t-32.5 28.5t-67.5 23.5t-113 21.5q-72 10 -148.5 27.5t-142 52.5t-107.5 91t-42 144q0 61 27.5 123t83 109t140.5 76.5t199 29.5q90 0 168 -23.5t138.5 -66.5t99.5 -104.5 t51 -134.5h-280q-12 37 -56.5 62.5t-120.5 25.5q-94 0 -135 -28t-41 -56q0 -41 55.5 -59.5t153.5 -34.5t181 -38t142.5 -58t93.5 -92t34 -142q0 -78 -35 -143.5t-96.5 -112.5t-146.5 -74t-185 -27t-186 26t-152 74t-108 115.5t-54 153.5z" />
<glyph unicode="t" horiz-adv-x="647" d="M16 815v240h127v268h271v-268h190v-240h-190v-373q0 -112 50 -156q44 -39 128 -39q11 0 24 1v-246q-36 -4 -70 -4q-74 0 -134 18q-88 26 -147.5 86t-90.5 147t-31 195v371h-127z" />
<glyph unicode="u" horiz-adv-x="1179" d="M115 438v617h270v-617q0 -23 6 -57.5t26.5 -68t59.5 -57.5t105 -24q92 0 148 59.5t56 147.5v617h271v-1055h-258v96q-49 -57 -117 -89t-152 -32q-94 0 -170.5 34t-131 94.5t-84 145.5t-29.5 189z" />
<glyph unicode="v" horiz-adv-x="1091" d="M2 1055h283l262 -787l264 787h279l-398 -1055h-291z" />
<glyph unicode="w" horiz-adv-x="1605" d="M4 1055h287l184 -738l193 738h270l192 -738l185 738h287l-330 -1055h-279l-190 698l-191 -698h-280z" />
<glyph unicode="x" horiz-adv-x="1050" d="M0 0l369 545l-346 510h307l196 -322l195 322h307l-346 -510l369 -545h-306l-219 358l-221 -358h-305z" />
<glyph unicode="y" horiz-adv-x="1089" d="M2 1055h287l258 -762l252 762h288l-466 -1248q-39 -102 -88.5 -163.5t-110 -93t-132.5 -38.5q-38 -4 -78 -4q-37 0 -77 3v245q20 -2 39 -2q27 0 50 4q38 6 66.5 22.5t50 46.5t38.5 75l31 80z" />
<glyph unicode="z" horiz-adv-x="1009" d="M43 0v233l557 578h-534v244h880v-242l-547 -569h566v-244h-922z" />
<glyph unicode="{" horiz-adv-x="684" d="M39 608v195q88 0 143.5 51t55.5 174v256q0 197 107.5 283t293.5 67v-198q-84 6 -121 -41t-37 -123v-268q0 -225 -155 -297q78 -39 116.5 -112t38.5 -187v-269q0 -76 37 -123t121 -41v-200q-186 -16 -293.5 69.5t-107.5 284.5v256q0 123 -55.5 173t-143.5 50z" />
<glyph unicode="|" horiz-adv-x="548" d="M139 0v1524h271v-1524h-271z" />
<glyph unicode="}" horiz-adv-x="684" d="M47 -25q82 -6 119 41t37 123v269q0 115 39 187.5t116 111.5q-156 72 -155 297v268q0 76 -37 123t-119 41v198q186 18 292.5 -67.5t106.5 -282.5v-256q0 -123 55.5 -174t143.5 -51v-195q-88 0 -143.5 -50t-55.5 -173v-256q0 -197 -107.5 -284t-291.5 -70v200z" />
<glyph unicode="~" horiz-adv-x="882" d="M82 1243q6 45 22.5 89t44 78t66.5 54.5t90 20.5q45 0 84 -12.5t74 -25.5t65.5 -25.5t59.5 -12.5q35 0 55.5 19.5t32.5 66.5h125q-6 -47 -22.5 -91t-43 -78t-63.5 -54.5t-84 -20.5q-45 0 -85 12.5t-75 26t-66.5 25.5t-62.5 12q-72 0 -92 -84h-125z" />
<glyph unicode="&#xa1;" horiz-adv-x="587" d="M160 0v999h270v-999h-270zM160 1155v268h270v-268h-270z" />
<glyph unicode="&#xa2;" horiz-adv-x="1095" d="M61 535q0 117 37 216t103.5 172.5t159 114.5t200.5 41q23 0 44.5 -2t43.5 -6l68 221h139l-80 -260q96 -47 163 -133t95 -201h-248q-14 35 -34.5 60.5t-44.5 46.5l-179 -584q10 -2 18.5 -3t18.5 -1q78 0 137.5 44t88.5 120h245q-20 -88 -62 -159.5t-103.5 -123t-139.5 -80 t-170 -28.5q-27 0 -51.5 3t-48.5 7l-68 -225h-139l82 268q-127 66 -201 195t-74 297zM307 535q0 -82 26.5 -149t74.5 -107l174 571h-17q-55 0 -103 -23.5t-82 -65.5t-53.5 -100.5t-19.5 -125.5z" />
<glyph unicode="&#xa3;" horiz-adv-x="1142" d="M88 573v179h133q-33 49 -57.5 109.5t-24.5 146.5q0 94 35 173t97.5 135t149.5 87t191 31q106 0 195.5 -34t153 -93.5t98.5 -142.5t35 -183h-254q0 94 -58.5 155.5t-169.5 61.5q-104 0 -161.5 -54t-57.5 -136q0 -39 9.5 -72t23.5 -62.5t32.5 -59.5t35.5 -62h299v-179h-242 q2 -16 3 -31.5t-1 -33.5q0 -72 -32 -140.5t-99 -123.5l2 -2q127 59 305 -4q94 -35 155.5 -16.5t114.5 71.5l125 -197q-59 -57 -119.5 -84.5t-119 -32t-115.5 9t-108 36.5q-115 49 -208.5 41.5t-201.5 -86.5l-148 208q96 51 159 132t63 174q0 23 -2 42t-9 37h-227z" />
<glyph unicode="&#xa4;" horiz-adv-x="1343" d="M51 434v154h121q-2 16 -3 34.5t-1 36.5q0 12 1 24.5t1 27.5h-119v151h148q31 98 89 182t138 143.5t177 93.5t206 34q297 0 475 -203l-115 -184q-53 78 -143 126t-209 48q-127 0 -223 -65.5t-145 -174.5h681l-94 -151h-628q-2 -12 -2 -25.5v-26.5q0 -18 1 -36.5t3 -34.5 h551l-95 -154h-411q47 -102 134 -161.5t197 -59.5q98 0 166 34t117 103h254q-70 -164 -205 -257t-332 -93q-102 0 -194 31.5t-167 89t-132 137.5t-88 176h-154z" />
<glyph unicode="&#xa5;" horiz-adv-x="1230" d="M2 1421h305l307 -608l310 608h305l-256 -469h164v-151h-246l-115 -209h330v-154h-354v-438h-273v438h-354v154h330l-115 209h-246v151h164z" />
<glyph unicode="&#xa7;" horiz-adv-x="1079" d="M68 715q0 68 32.5 133t110.5 113q-61 70 -61 186q2 68 30.5 125t80.5 100t126 66.5t164 23.5q88 0 159.5 -25.5t122 -70.5t76 -108.5t25.5 -139.5h-238q2 63 -44 95t-103 32q-31 0 -59.5 -6t-51 -18.5t-37 -31t-14.5 -42.5q0 -45 39 -65.5t131 -37.5q82 -16 164 -34.5 t146.5 -52t104.5 -89t40 -145.5q0 -72 -30.5 -132.5t-98.5 -103.5q29 -35 45 -78.5t16 -105.5q0 -72 -27.5 -132t-80 -104t-129 -70t-177.5 -26q-96 0 -172.5 28t-131 77t-84 115.5t-29.5 144.5h235q0 -59 50.5 -104.5t136.5 -45.5t132 29t46 74q0 23 -8.5 40t-34 30.5 t-70.5 25.5t-119 25q-90 14 -165.5 36.5t-131 58.5t-86 86t-30.5 124zM303 748q0 -53 61.5 -82t182.5 -45q29 -4 56.5 -10.5t55.5 -10.5q51 10 87 32.5t36 63.5q0 59 -69.5 83t-196.5 46q-25 4 -47.5 9.5t-44.5 11.5q-59 -16 -90 -42t-31 -56z" />
<glyph unicode="&#xa8;" horiz-adv-x="854" d="M121 1233v221h225v-221h-225zM506 1233v221h225v-221h-225z" />
<glyph unicode="&#xa9;" horiz-adv-x="1603" d="M61 717q0 154 58.5 288t159 234t235.5 158.5t289 58.5t288 -58.5t234 -158.5t158.5 -234.5t58.5 -287.5q0 -154 -58.5 -289t-158.5 -235.5t-234.5 -159t-287.5 -58.5q-154 0 -289 58.5t-235.5 159t-159 235.5t-58.5 289zM264 717q0 -115 42 -214.5t116 -174t172 -117.5 t209 -43t209 43t170.5 117.5t114.5 174t42 214.5q0 113 -42 213t-114.5 175t-171 118t-208.5 43q-111 0 -209 -43t-172 -118t-116 -175.5t-42 -212.5zM424 717q0 82 28.5 153.5t80 125t121 84t149.5 30.5q135 0 231 -79t129 -204h-209q-23 43 -60.5 69t-90.5 26 q-37 0 -70 -16.5t-56.5 -44t-37.5 -64.5t-14 -80t14 -80t37.5 -64.5t56.5 -44t70 -16.5q53 0 90 25.5t59 66.5h209q-33 -123 -129 -202.5t-229 -79.5q-80 0 -149.5 30.5t-121 85t-80 126t-28.5 153.5z" />
<glyph unicode="&#xaa;" horiz-adv-x="782" d="M63 1001q0 53 21.5 88t56.5 56.5t82 33t101 15.5q78 6 129 19.5t51 52.5q0 27 -31 44t-84 17q-43 0 -86 -19.5t-53 -60.5h-162q12 92 92 150.5t205 58.5q96 0 151.5 -26.5t83 -61.5t35 -71.5t7.5 -55.5v-330q0 -23 6 -53.5t12 -48.5h-150q-4 12 -8 26.5t-6 32.5 q-33 -35 -81 -53t-116 -18q-49 0 -96 12t-82 37.5t-56.5 64.5t-21.5 90zM227 999q0 -27 29 -43t80 -16q72 0 123 26.5t51 88.5v57q-27 -16 -65.5 -24.5t-88.5 -14.5q-59 -6 -94 -22.5t-35 -51.5z" />
<glyph unicode="&#xab;" horiz-adv-x="866" d="M47 512v203l324 278v-215l-205 -164l205 -168v-215zM481 512v203l324 278v-215l-205 -164l205 -168v-215z" />
<glyph unicode="&#xac;" horiz-adv-x="458" d="M94 578v268h271v-268h-271z" />
<glyph unicode="&#xad;" horiz-adv-x="677" d="M61 442v252h555v-252h-555z" />
<glyph unicode="&#xae;" horiz-adv-x="1603" d="M61 717q0 154 58.5 288t159 234t235.5 158.5t289 58.5t288 -58.5t234 -158.5t158.5 -234t58.5 -288t-58.5 -289t-158.5 -235.5t-234.5 -159t-287.5 -58.5q-154 0 -289 58.5t-235.5 159t-159 235.5t-58.5 289zM264 717q0 -115 42 -214.5t116 -174t172 -117.5t209 -43 t209 43t170.5 117.5t114.5 174t42 214.5q0 113 -42 213t-114.5 175t-171 118t-208.5 43q-111 0 -209 -43t-172 -118t-116 -175.5t-42 -212.5zM524 358v756h361q133 0 202.5 -73.5t69.5 -196.5q0 -78 -37 -135.5t-98 -87.5l141 -263h-225l-111 222h-102v-222h-201zM725 758 h147q41 0 60.5 23.5t19.5 62.5q0 41 -19.5 63.5t-60.5 22.5h-147v-172z" />
<glyph unicode="&#xaf;" horiz-adv-x="825" d="M82 1219v178h661v-178h-661z" />
<glyph unicode="&#xb0;" horiz-adv-x="755" d="M63 1104q0 63 25 120.5t67 100.5t99 67.5t123 24.5t123 -24.5t100 -67.5t67.5 -100.5t24.5 -120.5q0 -66 -24.5 -123t-67.5 -100t-100.5 -68t-122.5 -25q-66 0 -123 25t-99 68t-67 100t-25 123zM219 1104q0 -33 12.5 -62.5t34 -51t50 -34t61.5 -12.5t61.5 12.5t50 34 t34 51t12.5 62.5q0 66 -46.5 112t-111.5 46q-66 0 -112 -46.5t-46 -111.5z" />
<glyph unicode="&#xb1;" horiz-adv-x="1730" d="M16 795v258h127q2 102 34 189t91.5 146.5t146.5 88t199 16.5v-242q-100 6 -149 -41t-51 -157h311q2 102 34 189t91 146.5t146 88t200 16.5v-242q-100 6 -149.5 -41t-51.5 -157h191v-258h-191v-795h-270v795h-311v-795h-271v795h-127zM1333 0v1524h271v-1524h-271z" />
<glyph unicode="&#xb2;" horiz-adv-x="749" d="M68 541v73q0 74 22.5 130.5t59 99.5t85 75.5t99.5 61.5q61 33 97 57.5t54.5 45t23.5 39t5 38.5q0 43 -29.5 76t-97.5 33q-66 0 -102.5 -44t-36.5 -114h-168q0 61 19.5 117.5t58.5 99.5t96 69.5t133 26.5t131 -23.5t92 -61t54.5 -85t17.5 -96.5q0 -61 -20.5 -107 t-55.5 -81t-83 -64.5t-105 -60.5q-68 -35 -114 -72t-50 -78h426v-155h-612z" />
<glyph unicode="&#xb3;" horiz-adv-x="753" d="M49 821h170q0 -66 39 -103.5t109 -37.5q72 0 112.5 36t40.5 89q0 113 -143 113h-55v145h32q78 0 110 28.5t32 71.5q0 49 -31 78t-90 29q-68 0 -99.5 -40t-31.5 -89h-168q0 57 19.5 109.5t58.5 91t94 61t127 22.5q74 0 127 -21.5t89 -55t52 -77.5t16 -87 q0 -59 -28.5 -105.5t-83.5 -74.5q78 -23 109.5 -80.5t31.5 -120.5q0 -51 -20.5 -101.5t-60.5 -89.5t-100.5 -63.5t-137.5 -24.5q-80 0 -138.5 23.5t-98.5 63.5t-60.5 94.5t-22.5 115.5z" />
<glyph unicode="&#xb4;" horiz-adv-x="854" d="M190 1192l191 289h303l-295 -289h-199z" />
<glyph unicode="&#xb6;" horiz-adv-x="1251" d="M51 963q0 104 31 189t91 144.5t147.5 92t199.5 32.5h600v-1421h-213v1217h-153v-1217h-213v508h-27q-104 0 -190 33.5t-146.5 94t-93.5 144.5t-33 183z" />
<glyph unicode="&#xb7;" horiz-adv-x="458" d="M94 578v268h271v-268h-271z" />
<glyph unicode="&#xb8;" horiz-adv-x="630" d="M82 -371l35 74q55 -31 104 -41t86 -6t57.5 22.5t20.5 47.5q0 27 -15.5 44t-40 23t-52 4t-52.5 -14l-78 47l84 170h134l-84 -123q37 16 84 17.5t88 -15t68.5 -53.5t27.5 -94q0 -45 -19.5 -79t-51.5 -57.5t-75 -36t-88 -12.5q-76 0 -132 23.5t-101 58.5z" />
<glyph unicode="&#xb9;" horiz-adv-x="526" d="M70 1155v109q29 0 58.5 10t53 28.5t39 48t19.5 70.5h135v-880h-168v614h-137z" />
<glyph unicode="&#xba;" horiz-adv-x="759" d="M61 1124q0 70 26 131.5t69 105.5t101 69.5t124 25.5t124 -25.5t101 -69.5t67.5 -105.5t24.5 -131.5q0 -72 -24.5 -131t-67.5 -104t-101.5 -69.5t-123.5 -24.5q-66 0 -124 24.5t-101 69.5t-69 104.5t-26 130.5zM225 1124q0 -82 45 -132t111 -50t111 50t45 132t-45.5 133.5 t-110.5 51.5q-66 0 -111 -51.5t-45 -133.5z" />
<glyph unicode="&#xbb;" horiz-adv-x="864" d="M59 231v215l205 168l-205 164v215l324 -278v-203zM494 231v215l204 168l-204 164v215l323 -278v-203z" />
<glyph unicode="&#xbc;" horiz-adv-x="1523" d="M70 1155v109q59 2 111 38.5t59 118.5h135v-880h-168v614h-137zM211 -25l833 1446h173l-834 -1446h-172zM827 180v148l347 553h194v-553h94v-148h-94v-180h-158v180h-383zM993 328h217v348z" />
<glyph unicode="&#xbd;" horiz-adv-x="1630" d="M70 1155v109q59 2 110 38.5t60 118.5h133v-880h-166v614h-137zM209 -25l835 1446h170l-833 -1446h-172zM948 0v76q0 74 22.5 130t59.5 99t85 76t99 59q61 33 97.5 58.5t54.5 46t23.5 39t5.5 37.5q0 45 -30 76.5t-95 31.5q-66 0 -104 -44t-38 -112h-167q0 59 19 115.5 t58 99.5t96.5 70t133.5 27t131 -23.5t92 -61.5t54.5 -85t17.5 -97q0 -61 -20.5 -106t-55.5 -81t-83 -64.5t-106 -59.5q-68 -37 -113.5 -73.5t-49.5 -77.5h426v-156h-613z" />
<glyph unicode="&#xbe;" horiz-adv-x="1736" d="M49 821h168q0 -66 40 -103.5t110 -37.5q72 0 111.5 36t39.5 89q0 113 -143 113h-56v145h33q80 0 111 28.5t31 71.5q0 49 -31 78t-90 29q-68 0 -99.5 -40t-31.5 -89h-168q0 57 20.5 109.5t58 91t93 61t127.5 22.5q74 0 127 -21.5t89 -55t52 -77.5t16 -87 q0 -59 -28.5 -105.5t-83.5 -74.5q78 -23 109.5 -80.5t31.5 -120.5q0 -51 -20.5 -101.5t-60.5 -89.5t-99 -63.5t-139 -24.5t-138.5 23.5t-98.5 63.5t-60.5 94.5t-20.5 115.5zM424 -25l833 1446h173l-834 -1446h-172zM1040 180v148l346 553h195v-553h94v-148h-94v-180h-156 v180h-385zM1206 328h219v348z" />
<glyph unicode="&#xbf;" horiz-adv-x="1130" d="M94 391q0 63 18.5 114.5t50.5 94.5t76 79t95 71q70 47 99.5 95t29.5 113v48h250v-48q0 -80 -19.5 -139t-52.5 -104t-73 -78t-81 -62q-68 -49 -96.5 -90t-28.5 -94q0 -74 54.5 -121t152.5 -47q111 0 168.5 61.5t57.5 153.5h266q0 -102 -34 -188t-97.5 -147.5t-154.5 -95.5 t-206 -34q-113 0 -200.5 32t-149 87t-93.5 132t-32 167zM453 1161v269h272v-269h-272z" />
<glyph unicode="&#xc0;" d="M12 0l496 1421h342l496 -1421h-287l-96 285h-568l-96 -285h-287zM324 1829h303l190 -289h-199zM479 537h398l-199 583z" />
<glyph unicode="&#xc1;" d="M12 0l496 1421h342l496 -1421h-287l-96 285h-568l-96 -285h-287zM479 537h398l-199 583zM541 1540l190 289h303l-295 -289h-198z" />
<glyph unicode="&#xc2;" d="M12 0l496 1421h342l496 -1421h-287l-96 285h-568l-96 -285h-287zM330 1540l227 291h244l225 -291h-221l-127 170l-125 -170h-223zM479 537h398l-199 583z" />
<glyph unicode="&#xc3;" d="M12 0l496 1421h342l496 -1421h-287l-96 285h-568l-96 -285h-287zM319 1554q6 45 22.5 89.5t44.5 78t67 54t90 20.5q45 0 84 -12t73.5 -25.5t65.5 -26t59 -12.5q35 0 55.5 19.5t32.5 66.5h125q-6 -47 -22.5 -91t-43 -77.5t-63.5 -54t-84 -20.5q-45 0 -85 12t-74.5 25.5 t-66.5 25.5t-62 12q-72 0 -93 -84h-125zM479 537h398l-199 583z" />
<glyph unicode="&#xc4;" d="M12 0l496 1421h342l496 -1421h-287l-96 285h-568l-96 -285h-287zM360 1563v227h252v-227h-252zM479 537h398l-199 583zM745 1563v227h252v-227h-252z" />
<glyph unicode="&#xc5;" d="M12 0l496 1421h342l496 -1421h-287l-96 285h-568l-96 -285h-287zM461 1741q0 45 17.5 84t47 68.5t68.5 47t84 17.5t85 -17.5t68.5 -47t46 -68.5t17.5 -84q0 -92 -62.5 -154.5t-154.5 -62.5q-45 0 -84 17.5t-68.5 46t-47 68.5t-17.5 85zM479 537h398l-199 583zM582 1741 q0 -41 27.5 -71t68.5 -30t69.5 30t28.5 71t-28.5 70.5t-69.5 29.5t-68.5 -29.5t-27.5 -70.5z" />
<glyph unicode="&#xc6;" horiz-adv-x="1976" d="M12 0l502 1421h1387v-252h-768v-303h651v-252h-651v-362h782v-252h-1055v285h-465l-98 -285h-285zM477 537h383v632h-164z" />
<glyph unicode="&#xc7;" horiz-adv-x="1449" d="M68 717q0 156 53 291t145 235t218 157.5t272 57.5q121 0 224 -32.5t186 -94t143.5 -149.5t93.5 -197h-293q-51 98 -141 159.5t-213 61.5q-88 0 -164 -39t-132.5 -105.5t-89 -155.5t-32.5 -189t32.5 -189.5t89 -157t132.5 -106.5t164 -39q123 0 213 63.5t141 162.5h291 q-33 -106 -92.5 -193.5t-140.5 -149t-180 -96.5t-214 -37l-67 -96q39 16 86 17.5t88 -16t68.5 -54.5t27.5 -94q0 -45 -19.5 -79t-52.5 -57.5t-76 -36t-88 -12.5q-74 0 -130 23.5t-101 58.5l35 74q55 -31 104 -41t85 -5t57.5 23.5t21.5 45.5t-15.5 44t-40 23t-52 4t-52.5 -14 l-80 47l76 154q-125 20 -231.5 83.5t-184 161t-121.5 222t-44 266.5z" />
<glyph unicode="&#xc8;" horiz-adv-x="1245" d="M131 0v1421h1038v-252h-768v-303h656v-252h-656v-362h783v-252h-1053zM268 1829h303l191 -289h-199z" />
<glyph unicode="&#xc9;" horiz-adv-x="1245" d="M131 0v1421h1038v-252h-768v-303h656v-252h-656v-362h783v-252h-1053zM541 1540l190 289h303l-295 -289h-198z" />
<glyph unicode="&#xca;" horiz-adv-x="1245" d="M131 0v1421h1038v-252h-768v-303h656v-252h-656v-362h783v-252h-1053zM330 1540l227 291h244l225 -291h-221l-127 170l-125 -170h-223z" />
<glyph unicode="&#xcb;" horiz-adv-x="1245" d="M131 0v1421h1038v-252h-768v-303h656v-252h-656v-362h783v-252h-1053zM360 1563v227h252v-227h-252zM745 1563v227h252v-227h-252z" />
<glyph unicode="&#xcc;" horiz-adv-x="542" d="M-94 1829h303l190 -289h-198zM137 0v1421h271v-1421h-271z" />
<glyph unicode="&#xcd;" horiz-adv-x="542" d="M137 0v1421h271v-1421h-271zM154 1540l190 289h303l-295 -289h-198z" />
<glyph unicode="&#xce;" horiz-adv-x="542" d="M-76 1540l228 291h243l226 -291h-222l-127 170l-125 -170h-223zM137 0v1421h271v-1421h-271z" />
<glyph unicode="&#xcf;" horiz-adv-x="542" d="M-39 1563v227h252v-227h-252zM137 0v1421h271v-1421h-271zM346 1563v227h252v-227h-252z" />
<glyph unicode="&#xd0;" horiz-adv-x="1415" d="M31 657v252h149v512h527q147 0 266 -49t201.5 -141t128 -224t45.5 -296t-45.5 -295t-129 -223.5t-202.5 -142.5t-264 -50h-527v657h-149zM453 252h254q121 0 193.5 48t112.5 117.5t52 149.5t12 146q0 78 -15 158.5t-56 147t-113 108.5t-186 42h-254v-260h333v-252h-333 v-405z" />
<glyph unicode="&#xd1;" horiz-adv-x="1437" d="M131 0v1421h326l577 -1011v1011h273v-1421h-326l-580 1012v-1012h-270zM387 1593q10 106 68.5 176t146.5 70q43 0 77 -14.5t64.5 -31.5t59 -31.5t61.5 -14.5q41 0 64.5 25.5t36.5 60.5h112q-12 -106 -71.5 -176t-145.5 -70q-43 0 -76.5 14.5t-64.5 32t-59.5 31.5 t-61.5 14q-41 0 -64.5 -25.5t-35.5 -60.5h-111z" />
<glyph unicode="&#xd2;" horiz-adv-x="1525" d="M68 717q0 154 52 289t144 235t220 157.5t280 57.5q150 0 277.5 -57.5t220 -157.5t144.5 -235.5t52 -288.5q0 -156 -52 -291t-144.5 -235.5t-220.5 -158t-277 -57.5q-152 0 -280 57.5t-220 158t-144 235.5t-52 291zM340 717q0 -100 33 -188.5t90 -155t135 -104.5t166 -38 t165 38t134 104.5t90 154.5t33 189q0 98 -33 186t-90 154.5t-134 104.5t-165 38t-166 -38t-135 -104.5t-90 -154.5t-33 -186zM360 1829h304l190 -289h-199z" />
<glyph unicode="&#xd3;" horiz-adv-x="1525" d="M68 717q0 154 52 289t144 235t220 157.5t280 57.5q150 0 277.5 -57.5t220 -157.5t144.5 -235.5t52 -288.5q0 -156 -52 -291t-144.5 -235.5t-220.5 -158t-277 -57.5q-152 0 -280 57.5t-220 158t-144 235.5t-52 291zM340 717q0 -100 33 -188.5t90 -155t135 -104.5t166 -38 t165 38t134 104.5t90 154.5t33 189q0 98 -33 186t-90 154.5t-134 104.5t-165 38t-166 -38t-135 -104.5t-90 -154.5t-33 -186zM653 1540l191 289h303l-295 -289h-199z" />
<glyph unicode="&#xd4;" horiz-adv-x="1525" d="M68 717q0 154 52 289t144 235t220 157.5t280 57.5q150 0 277.5 -57.5t220 -157.5t144.5 -235.5t52 -288.5q0 -156 -52 -291t-144.5 -235.5t-220.5 -158t-277 -57.5q-152 0 -280 57.5t-220 158t-144 235.5t-52 291zM340 717q0 -100 33 -188.5t90 -155t135 -104.5t166 -38 t165 38t134 104.5t90 154.5t33 189q0 98 -33 186t-90 154.5t-134 104.5t-165 38t-166 -38t-135 -104.5t-90 -154.5t-33 -186zM416 1540l227 291h244l225 -291h-221l-127 170l-125 -170h-223z" />
<glyph unicode="&#xd5;" horiz-adv-x="1525" d="M68 717q0 154 52 289t144 235t220 157.5t280 57.5q150 0 277.5 -57.5t220 -157.5t144.5 -235.5t52 -288.5q0 -156 -52 -291t-144.5 -235.5t-220.5 -158t-277 -57.5q-152 0 -280 57.5t-220 158t-144 235.5t-52 291zM340 717q0 -100 33 -188.5t90 -155t135 -104.5t166 -38 t165 38t134 104.5t90 154.5t33 189q0 98 -33 186t-90 154.5t-134 104.5t-165 38t-166 -38t-135 -104.5t-90 -154.5t-33 -186zM424 1554q6 45 22.5 89.5t44 78t66.5 54t90 20.5q45 0 84 -12t74 -25.5t65.5 -26t59.5 -12.5q35 0 55.5 19.5t32.5 66.5h125q-6 -47 -22.5 -91 t-43 -77.5t-63.5 -54t-84 -20.5q-45 0 -85 12t-75 25.5t-66.5 25.5t-62.5 12q-72 0 -92 -84h-125z" />
<glyph unicode="&#xd6;" horiz-adv-x="1525" d="M68 717q0 154 52 289t144 235t220 157.5t280 57.5q150 0 277.5 -57.5t220 -157.5t144.5 -235.5t52 -288.5q0 -156 -52 -291t-144.5 -235.5t-220.5 -158t-277 -57.5q-152 0 -280 57.5t-220 158t-144 235.5t-52 291zM340 717q0 -100 33 -188.5t90 -155t135 -104.5t166 -38 t165 38t134 104.5t90 154.5t33 189q0 98 -33 186t-90 154.5t-134 104.5t-165 38t-166 -38t-135 -104.5t-90 -154.5t-33 -186zM453 1563v227h252v-227h-252zM838 1563v227h252v-227h-252z" />
<glyph unicode="&#xd7;" horiz-adv-x="1052" d="M20 152l365 366l-365 363l142 141l364 -365l365 365l141 -141l-364 -363l364 -366l-141 -142l-365 365l-364 -365z" />
<glyph unicode="&#xd8;" horiz-adv-x="1525" d="M68 102l147 150q-70 94 -108.5 212t-38.5 253q0 154 52 289t144 235t220 157.5t280 57.5q137 0 254 -47t209 -133l141 143l107 -104l-152 -152q66 -94 100.5 -206.5t34.5 -239.5q0 -156 -52 -291t-144.5 -235.5t-220.5 -158t-277 -57.5q-133 0 -245.5 44t-203.5 122 l-141 -145zM340 717q0 -147 70 -268l626 634q-55 55 -124.5 86t-147.5 31q-88 0 -166 -38t-135 -104.5t-90 -154.5t-33 -186zM506 334q53 -47 118.5 -75t139.5 -28q88 0 165 38t134 104.5t90 154.5t33 189q0 137 -60 246z" />
<glyph unicode="&#xd9;" horiz-adv-x="1331" d="M119 563v858h270v-866q0 -317 277 -317q276 0 276 317v866h272v-858q0 -135 -35.5 -244.5t-104 -185.5t-171 -117t-237.5 -41t-236.5 41t-171.5 117t-104.5 185.5t-34.5 244.5zM279 1829h303l190 -289h-199z" />
<glyph unicode="&#xda;" horiz-adv-x="1331" d="M119 563v858h270v-866q0 -317 277 -317q276 0 276 317v866h272v-858q0 -135 -35.5 -244.5t-104 -185.5t-171 -117t-237.5 -41t-236.5 41t-171.5 117t-104.5 185.5t-34.5 244.5zM573 1540l191 289h303l-295 -289h-199z" />
<glyph unicode="&#xdb;" horiz-adv-x="1331" d="M119 563v858h270v-866q0 -317 277 -317q276 0 276 317v866h272v-858q0 -135 -35.5 -244.5t-104 -185.5t-171 -117t-237.5 -41t-236.5 41t-171.5 117t-104.5 185.5t-34.5 244.5zM322 1540l227 291h244l225 -291h-221l-127 170l-125 -170h-223z" />
<glyph unicode="&#xdc;" horiz-adv-x="1331" d="M119 563v858h270v-866q0 -317 277 -317q276 0 276 317v866h272v-858q0 -135 -35.5 -244.5t-104 -185.5t-171 -117t-237.5 -41t-236.5 41t-171.5 117t-104.5 185.5t-34.5 244.5zM360 1563v227h252v-227h-252zM745 1563v227h252v-227h-252z" />
<glyph unicode="&#xdd;" horiz-adv-x="1218" d="M-4 1421h305l305 -602h6l306 602h305l-480 -876v-545h-270v545zM520 1532l191 297h293l-287 -297h-197z" />
<glyph unicode="&#xde;" horiz-adv-x="1249" d="M131 0v1421h270v-184h328q111 0 199 -33t147.5 -92t91 -144.5t31.5 -189.5q0 -100 -32.5 -184t-93 -144.5t-146.5 -94t-193 -33.5h-332v-322h-270zM401 571h326q94 0 147.5 49t53.5 158t-53.5 158t-147.5 49h-326v-414z" />
<glyph unicode="&#xdf;" horiz-adv-x="1208" d="M123 0v1059q0 94 35 179t97 148.5t148 100.5t189 37q104 0 190 -34t146.5 -92.5t94.5 -134t34 -161.5q0 -92 -35 -167t-100 -128q111 -49 168 -146.5t57 -220.5q0 -109 -33 -194.5t-93 -146t-145 -93.5t-190 -33q-47 0 -101.5 10.5t-90.5 26.5v252q41 -16 85 -23.5 t91 -7.5q102 0 154.5 60.5t52.5 152.5t-61.5 145.5t-153.5 53.5h-168v252h118q33 0 64 10t55.5 33t39.5 58.5t15 84.5q0 86 -50 136.5t-142 50.5q-86 0 -142.5 -60.5t-56.5 -156.5v-1051h-272z" />
<glyph unicode="&#xe0;" horiz-adv-x="1191" d="M63 322q0 88 35 146t94.5 94t137.5 53.5t166 25.5q66 6 121 14.5t95 21.5t62.5 33.5t22.5 53.5q0 41 -50.5 70.5t-142.5 29.5q-37 0 -73.5 -8t-68.5 -24.5t-56.5 -42t-32.5 -58.5h-271q10 76 50.5 139.5t105 110.5t150.5 73.5t190 26.5q106 0 182 -20.5t127 -54t82 -74.5 t46.5 -81t19.5 -75t4 -55v-549q0 -39 10 -90t21 -82h-248q-16 37 -27 98q-53 -55 -133 -86.5t-190 -31.5q-84 0 -161 21.5t-136.5 63t-95.5 106.5t-36 151zM266 1481h301l191 -289h-199zM336 319q0 -45 48 -72.5t130 -27.5q61 0 114.5 10.5t93.5 34t62.5 59t22.5 87.5v98 q-43 -29 -107.5 -43t-148.5 -25q-100 -10 -157.5 -35.5t-57.5 -85.5z" />
<glyph unicode="&#xe1;" horiz-adv-x="1191" d="M63 322q0 88 35 146t94.5 94t137.5 53.5t166 25.5q66 6 121 14.5t95 21.5t62.5 33.5t22.5 53.5q0 41 -50.5 70.5t-142.5 29.5q-37 0 -73.5 -8t-68.5 -24.5t-56.5 -42t-32.5 -58.5h-271q10 76 50.5 139.5t105 110.5t150.5 73.5t190 26.5q106 0 182 -20.5t127 -54t82 -74.5 t46.5 -81t19.5 -75t4 -55v-549q0 -39 10 -90t21 -82h-248q-16 37 -27 98q-53 -55 -133 -86.5t-190 -31.5q-84 0 -161 21.5t-136.5 63t-95.5 106.5t-36 151zM336 319q0 -45 48 -72.5t130 -27.5q61 0 114.5 10.5t93.5 34t62.5 59t22.5 87.5v98q-43 -29 -107.5 -43t-148.5 -25 q-100 -10 -157.5 -35.5t-57.5 -85.5zM444 1192l191 289h303l-295 -289h-199z" />
<glyph unicode="&#xe2;" horiz-adv-x="1191" d="M63 322q0 88 35 146t94.5 94t137.5 53.5t166 25.5q66 6 121 14.5t95 21.5t62.5 33.5t22.5 53.5q0 41 -50.5 70.5t-142.5 29.5q-37 0 -73.5 -8t-68.5 -24.5t-56.5 -42t-32.5 -58.5h-271q10 76 50.5 139.5t105 110.5t150.5 73.5t190 26.5q106 0 182 -20.5t127 -54t82 -74.5 t46.5 -81t19.5 -75t4 -55v-549q0 -39 10 -90t21 -82h-248q-16 37 -27 98q-53 -55 -133 -86.5t-190 -31.5q-84 0 -161 21.5t-136.5 63t-95.5 106.5t-36 151zM250 1192l227 291h242l227 -291h-221l-127 170l-125 -170h-223zM336 319q0 -45 48 -72.5t130 -27.5q61 0 114.5 10.5 t93.5 34t62.5 59t22.5 87.5v98q-43 -29 -107.5 -43t-148.5 -25q-100 -10 -157.5 -35.5t-57.5 -85.5z" />
<glyph unicode="&#xe3;" horiz-adv-x="1191" d="M63 322q0 88 35 146t94.5 94t137.5 53.5t166 25.5q66 6 121 14.5t95 21.5t62.5 33.5t22.5 53.5q0 41 -50.5 70.5t-142.5 29.5q-37 0 -73.5 -8t-68.5 -24.5t-56.5 -42t-32.5 -58.5h-271q10 76 50.5 139.5t105 110.5t150.5 73.5t190 26.5q106 0 182 -20.5t127 -54t82 -74.5 t46.5 -81t19.5 -75t4 -55v-549q0 -39 10 -90t21 -82h-248q-16 37 -27 98q-53 -55 -133 -86.5t-190 -31.5q-84 0 -161 21.5t-136.5 63t-95.5 106.5t-36 151zM231 1206q6 45 23.5 89t45.5 79t67 55.5t90 20.5q45 0 84 -12.5t72.5 -26.5t64.5 -26.5t59 -12.5q35 0 55.5 19.5 t32.5 66.5h127q-6 -47 -22.5 -91t-43 -78t-63.5 -54.5t-86 -20.5q-45 0 -84 12.5t-73.5 26t-66.5 25.5t-62 12q-72 0 -93 -84h-127zM336 319q0 -45 48 -72.5t130 -27.5q61 0 114.5 10.5t93.5 34t62.5 59t22.5 87.5v98q-43 -29 -107.5 -43t-148.5 -25q-100 -10 -157.5 -35.5 t-57.5 -85.5z" />
<glyph unicode="&#xe4;" horiz-adv-x="1191" d="M63 322q0 88 35 146t94.5 94t137.5 53.5t166 25.5q66 6 121 14.5t95 21.5t62.5 33.5t22.5 53.5q0 41 -50.5 70.5t-142.5 29.5q-37 0 -73.5 -8t-68.5 -24.5t-56.5 -42t-32.5 -58.5h-271q10 76 50.5 139.5t105 110.5t150.5 73.5t190 26.5q106 0 182 -20.5t127 -54t82 -74.5 t46.5 -81t19.5 -75t4 -55v-549q0 -39 10 -90t21 -82h-248q-16 37 -27 98q-53 -55 -133 -86.5t-190 -31.5q-84 0 -161 21.5t-136.5 63t-95.5 106.5t-36 151zM276 1212v228h250v-228h-250zM336 319q0 -45 48 -72.5t130 -27.5q61 0 114.5 10.5t93.5 34t62.5 59t22.5 87.5v98 q-43 -29 -107.5 -43t-148.5 -25q-100 -10 -157.5 -35.5t-57.5 -85.5zM662 1212v228h249v-228h-249z" />
<glyph unicode="&#xe5;" horiz-adv-x="1191" d="M63 322q0 88 35 146t94.5 94t137.5 53.5t166 25.5q66 6 121 14.5t95 21.5t62.5 33.5t22.5 53.5q0 41 -50.5 70.5t-142.5 29.5q-37 0 -73.5 -8t-68.5 -24.5t-56.5 -42t-32.5 -58.5h-271q10 76 50.5 139.5t105 110.5t150.5 73.5t190 26.5q106 0 182 -20.5t127 -54t82 -74.5 t46.5 -81t19.5 -75t4 -55v-549q0 -39 10 -90t21 -82h-248q-16 37 -27 98q-53 -55 -133 -86.5t-190 -31.5q-84 0 -161 21.5t-136.5 63t-95.5 106.5t-36 151zM336 319q0 -45 48 -72.5t130 -27.5q61 0 114.5 10.5t93.5 34t62.5 59t22.5 87.5v98q-43 -29 -107.5 -43t-148.5 -25 q-100 -10 -157.5 -35.5t-57.5 -85.5zM377 1397q0 45 17.5 85t47 68.5t68.5 46t84 17.5q92 0 154.5 -62.5t62.5 -154.5q0 -45 -17.5 -84t-46 -69t-68.5 -47t-85 -17t-84 17t-68.5 47t-47 69t-17.5 84zM498 1397q0 -41 27.5 -71t68.5 -30t69.5 30t28.5 71q0 43 -28.5 72.5 t-69.5 29.5t-68.5 -29.5t-27.5 -72.5z" />
<glyph unicode="&#xe6;" horiz-adv-x="1939" d="M63 322q0 109 50.5 172t124 98t157.5 47t152 20q45 4 91 8.5t84 13.5t61.5 25.5t23.5 45.5q0 41 -54.5 67.5t-140.5 26.5q-31 0 -66.5 -5t-67.5 -18.5t-57.5 -36t-35.5 -55.5h-283q10 76 50.5 139.5t106 110.5t153.5 73.5t192 26.5q156 0 248 -41t141 -96q68 63 158 100 t192 37q117 0 220.5 -44t177.5 -128t110.5 -206.5t20.5 -280.5h-793q29 -96 99.5 -148.5t162.5 -52.5q70 0 128.5 29t97.5 86h286q-47 -162 -179 -261.5t-331 -99.5q-125 0 -231 52.5t-176 144.5q-53 -92 -158.5 -142t-263.5 -50q-84 0 -164 21.5t-144.5 63t-103.5 106.5 t-39 151zM326 315q0 -41 51 -69.5t135 -28.5q63 0 120.5 11.5t98.5 36t65.5 62.5t24.5 91v74q-47 -29 -110.5 -41.5t-130.5 -18.5q-129 -10 -191.5 -36.5t-62.5 -80.5zM1085 649h519q-29 88 -99.5 137.5t-163.5 49.5q-86 0 -155.5 -50.5t-100.5 -136.5z" />
<glyph unicode="&#xe7;" horiz-adv-x="1169" d="M61 524q0 115 41 216.5t113 177t172 119.5t219 44q94 0 177 -26.5t149.5 -75.5t113 -120t70.5 -159h-291q-31 53 -88 86t-131 33q-55 0 -104 -23.5t-86 -63.5t-58.5 -93t-21.5 -115q0 -59 21.5 -111.5t58.5 -92t86 -62t104 -22.5q76 0 133.5 32.5t87.5 87.5h289 q-45 -178 -176 -278.5t-319 -104.5l-50 -79q33 12 74 11t76 -17.5t58.5 -48.5t23.5 -81q0 -78 -51.5 -121t-137.5 -43q-53 0 -106 25t-90 62l37 63q29 -29 67.5 -42t77.5 -13q35 0 60.5 16t25.5 49q0 27 -21.5 47.5t-60.5 20.5q-18 0 -36.5 -5t-35.5 -22l-73 49l69 136 q-104 14 -190 62t-147.5 121t-95.5 165t-34 196z" />
<glyph unicode="&#xe8;" horiz-adv-x="1198" d="M61 526q0 115 43 216.5t117 176t172.5 118.5t208.5 44q117 0 220.5 -44t177 -129t110.5 -207.5t23 -278.5h-797q27 -98 97.5 -153.5t166.5 -55.5q68 0 128 29.5t95 93.5h289q-47 -162 -179 -261.5t-331 -99.5q-111 0 -209 43t-172 118t-117 175.5t-43 214.5zM221 1481 h301l191 -289h-199zM340 643h524q-25 92 -95.5 146.5t-168.5 54.5q-92 0 -161.5 -54.5t-98.5 -146.5z" />
<glyph unicode="&#xe9;" horiz-adv-x="1198" d="M61 526q0 115 43 216.5t117 176t172.5 118.5t208.5 44q117 0 220.5 -44t177 -129t110.5 -207.5t23 -278.5h-797q27 -98 97.5 -153.5t166.5 -55.5q68 0 128 29.5t95 93.5h289q-47 -162 -179 -261.5t-331 -99.5q-111 0 -209 43t-172 118t-117 175.5t-43 214.5zM340 643h524 q-25 92 -95.5 146.5t-168.5 54.5q-92 0 -161.5 -54.5t-98.5 -146.5zM510 1192l190 289h304l-295 -289h-199z" />
<glyph unicode="&#xea;" horiz-adv-x="1198" d="M61 526q0 115 43 216.5t117 176t172.5 118.5t208.5 44q117 0 220.5 -44t177 -129t110.5 -207.5t23 -278.5h-797q27 -98 97.5 -153.5t166.5 -55.5q68 0 128 29.5t95 93.5h289q-47 -162 -179 -261.5t-331 -99.5q-111 0 -209 43t-172 118t-117 175.5t-43 214.5zM252 1192 l227 291h242l227 -291h-221l-127 170l-125 -170h-223zM340 643h524q-25 92 -95.5 146.5t-168.5 54.5q-92 0 -161.5 -54.5t-98.5 -146.5z" />
<glyph unicode="&#xeb;" horiz-adv-x="1198" d="M61 526q0 115 43 216.5t117 176t172.5 118.5t208.5 44q117 0 220.5 -44t177 -129t110.5 -207.5t23 -278.5h-797q27 -98 97.5 -153.5t166.5 -55.5q68 0 128 29.5t95 93.5h289q-47 -162 -179 -261.5t-331 -99.5q-111 0 -209 43t-172 118t-117 175.5t-43 214.5zM283 1212 v228h249v-228h-249zM340 643h524q-25 92 -95.5 146.5t-168.5 54.5q-92 0 -161.5 -54.5t-98.5 -146.5zM668 1212v228h250v-228h-250z" />
<glyph unicode="&#xec;" horiz-adv-x="530" d="M-94 1481h301l190 -289h-198zM129 0v1055h270v-1055h-270z" />
<glyph unicode="&#xed;" horiz-adv-x="530" d="M129 0v1055h270v-1055h-270zM141 1192l191 289h303l-295 -289h-199z" />
<glyph unicode="&#xee;" horiz-adv-x="530" d="M-82 1192l227 291h242l227 -291h-221l-127 170l-125 -170h-223zM129 0v1055h270v-1055h-270z" />
<glyph unicode="&#xef;" horiz-adv-x="530" d="M-47 1212v228h250v-228h-250zM129 0v1055h270v-1055h-270zM338 1212v228h250v-228h-250z" />
<glyph unicode="&#xf0;" horiz-adv-x="1202" d="M68 512q0 131 46 233.5t118.5 172t160.5 105.5t172 36q92 0 172 -35q-37 53 -84 103.5t-104 93.5l-152 -111l-112 70l155 112q-35 18 -69.5 34.5t-71.5 29.5l201 151q35 -16 67.5 -34.5t65.5 -38.5l127 94l112 -70l-135 -100q188 -158 284.5 -376t96.5 -456 q0 -123 -41 -225t-112.5 -176t-167 -115t-203.5 -41q-109 0 -205 41t-167.5 114t-112.5 172t-41 216zM336 512q0 -66 20.5 -121t55 -95t82 -61.5t100.5 -21.5t100 21.5t82 61.5t55.5 95t20.5 121q0 68 -20.5 123t-55.5 95t-82 62.5t-100 22.5t-100.5 -22.5t-82 -62.5 t-55 -95t-20.5 -123z" />
<glyph unicode="&#xf1;" horiz-adv-x="1181" d="M123 0v1055h258v-103q51 59 118.5 94t153.5 35q92 0 169 -33.5t130.5 -94t83 -146.5t29.5 -191v-616h-270v616q0 23 -6.5 59t-26 69.5t-58 57t-106.5 23.5q-92 0 -148.5 -59t-56.5 -150v-616h-270zM248 1206q6 45 23.5 89t45 79t66.5 55.5t90 20.5q45 0 84 -12.5 t73 -26.5t64.5 -26.5t59.5 -12.5q35 0 55 19.5t33 66.5h127q-6 -47 -22.5 -91t-43 -78t-63.5 -54.5t-86 -20.5q-45 0 -84 12.5t-74 26t-66.5 25.5t-62.5 12q-72 0 -92 -84h-127z" />
<glyph unicode="&#xf2;" horiz-adv-x="1185" d="M61 526q0 119 42 220.5t114 176t168 116.5t207 42t207 -42t168.5 -116.5t114.5 -176t42 -220.5t-42 -219t-114.5 -174t-169 -116t-206.5 -42q-111 0 -207 42t-168 116t-114 174.5t-42 218.5zM207 1481h301l190 -289h-198zM332 524q0 -68 20.5 -123t55 -95t83 -61.5 t101.5 -21.5t100 21.5t83 61.5t56.5 95.5t20.5 122.5q0 68 -20.5 125.5t-56.5 98t-83 63.5t-100 23t-101.5 -23t-83 -63.5t-55 -98t-20.5 -125.5z" />
<glyph unicode="&#xf3;" horiz-adv-x="1185" d="M61 526q0 119 42 220.5t114 176t168 116.5t207 42t207 -42t168.5 -116.5t114.5 -176t42 -220.5t-42 -219t-114.5 -174t-169 -116t-206.5 -42q-111 0 -207 42t-168 116t-114 174.5t-42 218.5zM332 524q0 -68 20.5 -123t55 -95t83 -61.5t101.5 -21.5t100 21.5t83 61.5 t56.5 95.5t20.5 122.5q0 68 -20.5 125.5t-56.5 98t-83 63.5t-100 23t-101.5 -23t-83 -63.5t-55 -98t-20.5 -125.5zM502 1192l190 289h303l-295 -289h-198z" />
<glyph unicode="&#xf4;" horiz-adv-x="1185" d="M61 526q0 119 42 220.5t114 176t168 116.5t207 42t207 -42t168.5 -116.5t114.5 -176t42 -220.5t-42 -219t-114.5 -174t-169 -116t-206.5 -42q-111 0 -207 42t-168 116t-114 174.5t-42 218.5zM252 1192l227 291h242l227 -291h-221l-127 170l-125 -170h-223zM332 524 q0 -68 20.5 -123t55 -95t83 -61.5t101.5 -21.5t100 21.5t83 61.5t56.5 95.5t20.5 122.5q0 68 -20.5 125.5t-56.5 98t-83 63.5t-100 23t-101.5 -23t-83 -63.5t-55 -98t-20.5 -125.5z" />
<glyph unicode="&#xf5;" horiz-adv-x="1185" d="M61 526q0 119 42 220.5t114 176t168 116.5t207 42t207 -42t168.5 -116.5t114.5 -176t42 -220.5t-42 -219t-114.5 -174t-169 -116t-206.5 -42q-111 0 -207 42t-168 116t-114 174.5t-42 218.5zM231 1206q6 45 23.5 89t45.5 79t67 55.5t90 20.5q45 0 84 -12.5t72.5 -26.5 t64.5 -26.5t59 -12.5q35 0 55.5 19.5t32.5 66.5h127q-6 -47 -22.5 -91t-43 -78t-63.5 -54.5t-86 -20.5q-45 0 -84 12.5t-73.5 26t-66.5 25.5t-62 12q-72 0 -93 -84h-127zM332 524q0 -68 20.5 -123t55 -95t83 -61.5t101.5 -21.5t100 21.5t83 61.5t56.5 95.5t20.5 122.5 q0 68 -20.5 125.5t-56.5 98t-83 63.5t-100 23t-101.5 -23t-83 -63.5t-55 -98t-20.5 -125.5z" />
<glyph unicode="&#xf6;" horiz-adv-x="1185" d="M61 526q0 119 42 220.5t114 176t168 116.5t207 42t207 -42t168.5 -116.5t114.5 -176t42 -220.5t-42 -219t-114.5 -174t-169 -116t-206.5 -42q-111 0 -207 42t-168 116t-114 174.5t-42 218.5zM276 1212v228h250v-228h-250zM332 524q0 -68 20.5 -123t55 -95t83 -61.5 t101.5 -21.5t100 21.5t83 61.5t56.5 95.5t20.5 122.5q0 68 -20.5 125.5t-56.5 98t-83 63.5t-100 23t-101.5 -23t-83 -63.5t-55 -98t-20.5 -125.5zM662 1212v228h249v-228h-249z" />
<glyph unicode="&#xf7;" horiz-adv-x="458" d="M94 578v268h271v-268h-271z" />
<glyph unicode="&#xf8;" horiz-adv-x="1185" d="M61 524q0 115 42 216.5t114 177t169 119.5t208 44q92 0 175 -31.5t151 -86.5l94 94l104 -101l-98 -100q49 -70 76.5 -154t27.5 -178q0 -115 -42 -214t-113.5 -175t-167.5 -119t-207 -43q-94 0 -178 32t-152 87l-94 -94l-102 102l96 99q-47 70 -75 151.5t-28 173.5z M328 524q0 -70 28 -131l379 383q-31 23 -66.5 35t-74.5 12q-55 0 -103.5 -23.5t-85 -63.5t-57 -95t-20.5 -117zM449 279q31 -23 67.5 -35.5t77.5 -12.5q55 0 103 24t84 63.5t56.5 93t20.5 112.5q0 76 -31 138z" />
<glyph unicode="&#xf9;" horiz-adv-x="1179" d="M115 438v617h270v-617q0 -23 6 -57.5t26.5 -68t59.5 -57.5t105 -24q92 0 148 59.5t56 147.5v617h271v-1055h-258v96q-49 -57 -117 -89t-152 -32q-94 0 -170.5 34t-131 94.5t-84 145.5t-29.5 189zM213 1481h301l191 -289h-199z" />
<glyph unicode="&#xfa;" horiz-adv-x="1179" d="M115 438v617h270v-617q0 -23 6 -57.5t26.5 -68t59.5 -57.5t105 -24q92 0 148 59.5t56 147.5v617h271v-1055h-258v96q-49 -57 -117 -89t-152 -32q-94 0 -170.5 34t-131 94.5t-84 145.5t-29.5 189zM502 1192l190 289h303l-295 -289h-198z" />
<glyph unicode="&#xfb;" horiz-adv-x="1179" d="M115 438v617h270v-617q0 -23 6 -57.5t26.5 -68t59.5 -57.5t105 -24q92 0 148 59.5t56 147.5v617h271v-1055h-258v96q-49 -57 -117 -89t-152 -32q-94 0 -170.5 34t-131 94.5t-84 145.5t-29.5 189zM238 1192l227 291h242l227 -291h-221l-127 170l-125 -170h-223z" />
<glyph unicode="&#xfc;" horiz-adv-x="1179" d="M115 438v617h270v-617q0 -23 6 -57.5t26.5 -68t59.5 -57.5t105 -24q92 0 148 59.5t56 147.5v617h271v-1055h-258v96q-49 -57 -117 -89t-152 -32q-94 0 -170.5 34t-131 94.5t-84 145.5t-29.5 189zM274 1212v228h250v-228h-250zM659 1212v228h250v-228h-250z" />
<glyph unicode="&#xfd;" horiz-adv-x="1091" d="M2 1055h289l250 -707h6l252 707h291q-12 -35 -40 -105.5t-63 -165t-76 -203t-82 -216.5q-96 -254 -208 -558q-39 -102 -89.5 -163.5t-107.5 -93t-121.5 -39t-130.5 -3.5v248q76 -4 119 26t78 120l34 98zM471 1233l191 295h294l-284 -295h-201z" />
<glyph unicode="&#xfe;" horiz-adv-x="1277" d="M133 -469v1890h273v-465q59 59 138 91t171 32q104 0 195 -42t159 -115.5t108 -174t40 -217.5t-40 -218t-108 -176t-159 -117t-195 -42q-92 0 -171 33t-138 92v-571h-273zM406 530q0 -61 21.5 -116.5t58 -96.5t86 -64.5t104.5 -23.5t104 22.5t86 63.5t58.5 95t21.5 120 q0 63 -21.5 117.5t-58.5 94.5t-86 62.5t-104 22.5t-104.5 -23.5t-86 -63.5t-58 -94t-21.5 -116z" />
<glyph unicode="&#xff;" horiz-adv-x="1089" d="M2 1055h287l258 -762l252 762h288l-466 -1248q-39 -102 -88.5 -163.5t-110 -93t-133 -39t-154.5 -0.5v245q51 -4 89 2t66.5 22.5t50 46.5t38.5 75l31 80zM221 1212v228h250v-228h-250zM606 1212v228h250v-228h-250z" />
<glyph unicode="&#x152;" horiz-adv-x="2299" d="M68 717q0 154 52 289t144 235t220 157.5t280 57.5q131 0 235.5 -43t184.5 -121v129h1038v-252h-768v-303h655v-252h-655v-362h784v-252h-1054v139q-80 -78 -184.5 -121t-235.5 -43q-152 0 -280 57.5t-220 158t-144 235.5t-52 291zM338 717q0 -98 34 -187.5t91 -155 t135 -104.5t166 -39q84 0 158.5 36t132 99.5t91.5 146.5t38 179v47q-4 94 -38 178t-91.5 147.5t-132 99.5t-158.5 36q-88 0 -166 -38t-135 -104.5t-91 -154.5t-34 -186z" />
<glyph unicode="&#x153;" horiz-adv-x="1978" d="M61 526q0 115 42 216.5t114 176t168 118.5t207 44q123 0 224.5 -52t162.5 -142q70 90 175.5 142t227.5 52q117 0 220.5 -44t177 -128t110.5 -206.5t21 -280.5h-795q29 -96 99.5 -148.5t162.5 -52.5q70 0 128.5 29t99.5 86h284q-47 -162 -179 -261.5t-329 -99.5 q-123 0 -228 51.5t-175 139.5q-61 -88 -162.5 -139.5t-224.5 -51.5q-111 0 -207 43t-168 118t-114 175.5t-42 214.5zM332 526q0 -59 20.5 -112.5t55 -92t83 -61t101.5 -22.5q55 0 102 22.5t83 61t56.5 92t20.5 112.5t-20.5 112.5t-56.5 93.5t-83 63.5t-102 23.5 q-53 0 -101.5 -23.5t-83 -63.5t-55 -93t-20.5 -113zM1122 649h518q-29 88 -99.5 137.5t-162.5 49.5q-86 0 -155.5 -50.5t-100.5 -136.5z" />
<glyph unicode="&#x178;" horiz-adv-x="1218" d="M-4 1421h305l307 -608l310 608h305l-478 -876v-545h-272v545zM305 1563v227h252v-227h-252zM690 1563v227h252v-227h-252z" />
<glyph unicode="&#x2c6;" horiz-adv-x="854" d="M74 1192l227 291h242l227 -291h-221l-127 170l-125 -170h-223z" />
<glyph unicode="&#x2dc;" horiz-adv-x="854" d="M63 1206q6 45 23.5 89t45.5 79t67 55.5t90 20.5q45 0 84 -12.5t72.5 -26.5t64.5 -26.5t59 -12.5q35 0 55.5 19.5t32.5 66.5h127q-6 -47 -22.5 -91t-43 -78t-63.5 -54.5t-86 -20.5q-45 0 -84 12.5t-73.5 26t-66.5 25.5t-62 12q-72 0 -93 -84h-127z" />
<glyph unicode="&#x2000;" horiz-adv-x="979" />
<glyph unicode="&#x2001;" horiz-adv-x="1958" />
<glyph unicode="&#x2002;" horiz-adv-x="979" />
<glyph unicode="&#x2003;" horiz-adv-x="1958" />
<glyph unicode="&#x2004;" horiz-adv-x="652" />
<glyph unicode="&#x2005;" horiz-adv-x="489" />
<glyph unicode="&#x2006;" horiz-adv-x="326" />
<glyph unicode="&#x2007;" horiz-adv-x="326" />
<glyph unicode="&#x2008;" horiz-adv-x="244" />
<glyph unicode="&#x2009;" horiz-adv-x="391" />
<glyph unicode="&#x200a;" horiz-adv-x="108" />
<glyph unicode="&#x2010;" horiz-adv-x="677" d="M61 442v252h555v-252h-555z" />
<glyph unicode="&#x2011;" horiz-adv-x="677" d="M61 442v252h555v-252h-555z" />
<glyph unicode="&#x2012;" horiz-adv-x="677" d="M61 442v252h555v-252h-555z" />
<glyph unicode="&#x2013;" horiz-adv-x="1241" d="M63 442v252h1115v-252h-1115z" />
<glyph unicode="&#x2014;" horiz-adv-x="1947" d="M63 442v252h1821v-252h-1821z" />
<glyph unicode="&#x2018;" horiz-adv-x="415" d="M70 862v277q0 131 69.5 201.5t179.5 82.5v-114q-59 -14 -88.5 -56.5t-29.5 -107.5v-25h145v-258h-276z" />
<glyph unicode="&#x2019;" horiz-adv-x="415" d="M70 1163v258h276v-276q0 -129 -69.5 -201t-180.5 -82v115q59 12 89 55t30 109v22h-145z" />
<glyph unicode="&#x201a;" horiz-adv-x="409" d="M70 2v258h276v-276q0 -129 -69.5 -201t-180.5 -82v115q59 12 89 55t30 109v22h-145z" />
<glyph unicode="&#x201c;" horiz-adv-x="872" d="M70 862v277q0 131 69.5 201.5t179.5 82.5v-114q-59 -14 -88.5 -56.5t-29.5 -107.5v-25h145v-258h-276zM526 862v277q0 131 70 201.5t180 82.5v-114q-59 -14 -89 -56.5t-30 -107.5v-25h146v-258h-277z" />
<glyph unicode="&#x201d;" horiz-adv-x="872" d="M70 1163v258h276v-276q0 -129 -69.5 -201t-180.5 -82v115q59 12 89 55t30 109v22h-145zM526 1163v258h277v-276q0 -129 -69.5 -201t-180.5 -82v115q59 12 89 55t30 109v22h-146z" />
<glyph unicode="&#x201e;" horiz-adv-x="866" d="M70 0v258h276v-276q0 -129 -69.5 -201t-180.5 -82v115q59 12 89 55t30 108v23h-145zM526 0v258h277v-276q0 -129 -69.5 -201t-180.5 -82v115q59 12 89 55t30 108v23h-146z" />
<glyph unicode="&#x2022;" horiz-adv-x="641" d="M102 748q0 45 17.5 83.5t46.5 68.5t68.5 47.5t87.5 17.5q45 0 83.5 -17.5t68.5 -47.5t47.5 -68.5t17.5 -83.5q0 -47 -17.5 -87t-47.5 -69t-68.5 -46.5t-83.5 -17.5q-47 0 -87 17.5t-69 46.5t-46.5 68.5t-17.5 87.5z" />
<glyph unicode="&#x2026;" horiz-adv-x="1769" d="M94 0v289h291v-289h-291zM739 0v289h291v-289h-291zM1384 0v289h291v-289h-291z" />
<glyph unicode="&#x202f;" horiz-adv-x="391" />
<glyph unicode="&#x2039;" horiz-adv-x="430" d="M47 512v203l324 278v-215l-205 -164l205 -168v-215z" />
<glyph unicode="&#x203a;" horiz-adv-x="430" d="M59 231v215l205 168l-205 164v215l326 -278v-203z" />
<glyph unicode="&#x205f;" horiz-adv-x="489" />
<glyph unicode="&#x2122;" horiz-adv-x="1884" d="M72 1231v190h649v-190h-223v-703h-203v703h-223zM825 528v893h260l218 -649l219 649h260v-893h-195v541l-178 -541h-213l-176 539v-539h-195z" />
<glyph unicode="&#x25fc;" horiz-adv-x="1054" d="M0 0v1055h1055v-1055h-1055z" />
</font>
</defs>
</svg>
